<?xml version="1.0" standalone="no"?>
<!DOCTYPE svg PUBLIC "-//W3C//DTD SVG 20010904//EN"
 "http://www.w3.org/TR/2001/REC-SVG-20010904/DTD/svg10.dtd">
<svg version="1.0" xmlns="http://www.w3.org/2000/svg"
 width="225.000000pt" height="225.000000pt" viewBox="0 0 225.000000 225.000000"
 preserveAspectRatio="xMidYMid meet">
<metadata>
Created by potrace 1.15, written by Peter Selinger 2001-2017
</metadata>
<g transform="translate(0.000000,225.000000) scale(0.100000,-0.100000)"
fill="#000000" stroke="none">
<path d="M1312 1829 c-90 -72 -166 -129 -170 -127 -4 2 -86 59 -181 127 l-174
124 -371 -67 c-204 -37 -372 -69 -373 -70 -1 -1 81 -85 182 -186 l185 -185
-185 -185 -185 -186 182 -75 183 -76 3 -179 3 -179 319 -130 c176 -72 337
-136 358 -144 l39 -14 356 144 357 144 0 176 0 176 183 78 c100 43 184 80 187
82 2 2 -79 87 -180 189 l-185 185 185 178 c157 151 182 179 165 185 -15 4
-715 147 -720 146 0 0 -73 -59 -163 -131z m162 -275 c198 -66 314 -110 305
-114 -14 -8 -255 -109 -502 -210 l-128 -53 -345 134 c-200 77 -340 136 -332
140 7 4 139 46 293 93 154 48 298 93 320 101 22 7 47 14 55 14 8 1 159 -47
334 -105z"/>
</g>
</svg>
